<svg xmlns="http://www.w3.org/2000/svg" viewBox="0 0 500 500"><g id="freepik--background-simple--inject-12"><path d="M44.41,320.29s26.73,70.51,102.13,96.87,158.5.42,226.37-18.81,105.85-75.29,93.95-135.2-68.33-58.53-118.12-113.74S294.07,71.94,222.19,52.76,67.71,90.75,43.48,176.39,44.41,320.29,44.41,320.29Z" style="fill:#DDDADA"></path><path d="M44.41,320.29s26.73,70.51,102.13,96.87,158.5.42,226.37-18.81,105.85-75.29,93.95-135.2-68.33-58.53-118.12-113.74S294.07,71.94,222.19,52.76,67.71,90.75,43.48,176.39,44.41,320.29,44.41,320.29Z" style="fill:#fff;opacity:0.7000000000000001"></path></g></svg>