<svg xmlns="http://www.w3.org/2000/svg" viewBox="0 0 750 500"><g id="freepik--background-simple--inject-20"><path d="M707.79,150.57c-12-37.74-33.54-70.66-69.44-89-48-24.58-108.71-25.19-164.54-6.35C442,65.92,412.57,84,383.87,102.39c-25.5,16.36-55.46,41.35-84.95,46.63-39.92,7.15-124-50.85-195.18-34.85s-103.49,106-94.15,162,75.34,56,93.05,102,98.38,85,207.94,59,166.6-41,219.73-20,129.31,27,167.34-61c15.23-35.23,23.37-72.6,23.44-109C721.14,215.24,717.6,181.3,707.79,150.57Z" style="fill:#FF725E"></path><path d="M707.79,150.57c-12-37.74-33.54-70.66-69.44-89-48-24.58-108.71-25.19-164.54-6.35C442,65.92,412.57,84,383.87,102.39c-25.5,16.36-55.46,41.35-84.95,46.63-39.92,7.15-124-50.85-195.18-34.85s-103.49,106-94.15,162,75.34,56,93.05,102,98.38,85,207.94,59,166.6-41,219.73-20,129.31,27,167.34-61c15.23-35.23,23.37-72.6,23.44-109C721.14,215.24,717.6,181.3,707.79,150.57Z" style="fill:#fff;opacity:0.7000000000000001"></path></g></svg>
